<?xml version="1.0" encoding="UTF-8" standalone="no"?>
<!-- Created with Inkscape (http://www.inkscape.org/) -->

<svg
   width="205.3204mm"
   height="300.91782mm"
   viewBox="0 0 205.3204 300.91782"
   version="1.1"
   id="svg1"
   xmlns:xlink="http://www.w3.org/1999/xlink"
   xmlns="http://www.w3.org/2000/svg"
   xmlns:svg="http://www.w3.org/2000/svg">
  <defs
     id="defs1">
    <pattern
       xlink:href="#pattern6-7"
       preserveAspectRatio="xMidYMid"
       id="pattern20"
       patternTransform="translate(190,350)"
       x="0"
       y="0" />
    <pattern
       patternUnits="userSpaceOnUse"
       width="29"
       height="20"
       patternTransform="translate(190,350)"
       preserveAspectRatio="xMidYMid"
       style="fill:#221a22"
       id="pattern6-7">
      <path
         style="fill:none;stroke:#000000;stroke-width:10;stroke-linecap:butt;stroke-dasharray:none;paint-order:stroke markers fill;stop-color:#000000"
         d="M 0,5 C 19,5 10,15 29,15"
         id="path4-2" />
    </pattern>
    <linearGradient
       id="swatch14">
      <stop
         style="stop-color:#8a2222;stop-opacity:0.20253164;"
         offset="0"
         id="stop14" />
    </linearGradient>
    <pattern
       xlink:href="#FloorTiles"
       preserveAspectRatio="xMidYMid"
       id="pattern14"
       patternTransform="rotate(-30)"
       x="0"
       y="0" />
    <pattern
       patternUnits="userSpaceOnUse"
       width="90"
       height="90"
       id="FloorTiles"
       preserveAspectRatio="xMidYMid"
       patternTransform="rotate(-45)"
       style="fill:#ba435d">
      <path
         id="rect1"
         style="stroke-width:5;stroke-miterlimit:10"
         d="M 0,0 V 1 H 15 V 15 H 0 v 1 44 0.5 0.5 14 1 h 30 v 14 h 1 V 76 h 14 v 14 h 1 V 61 h 14 v 29 h 1 V 46 h 14 v 29 0.5 0.5 14 h 1 V 76 H 90 V 75 H 76 V 31 H 90 V 30 H 75 46 V 16 H 61 90 V 15 H 61 V 1 H 90 V 0 H 61 60 V 0.5 15 H 46 V 0 H 45 V 15 15.5 16 30 H 31 V 0 H 30 15 Z M 16,1 H 30 V 30 30.5 31 45 H 16 V 16 15 Z M 1,16 H 15 V 45 45.5 46 60 H 1 Z M 31,31 H 46 75 V 45 H 61 31 Z M 16,46 H 31 60 V 60 H 46 16 Z M 1,61 H 16 45 V 75 H 31 1 Z" />
    </pattern>
  </defs>
  <g
     id="layer1"
     transform="translate(20.234982,14.38222)">
    <path
       style="mix-blend-mode:lighten;fill:url(#pattern14);fill-opacity:1;stroke:url(#pattern20);stroke-width:0.265;stroke-dasharray:none"
       d="M 69.185326,84.092663 C 59.629344,175.83011 89.061776,222.84556 89.061776,222.84556 L 172.7722,151.36679 c 0,0 -71.861,9.55599 -82.563707,72.24324 -10.702703,62.68726 -10.702703,62.68726 -10.702703,62.68726 0,0 86.00386,-43.95753 23.3166,-124.99227 C 40.135135,80.27027 40.135135,80.27027 40.135135,80.27027 c 0,0 -65.745173,27.13899 6.498068,-4.586873 72.243247,-31.725869 72.243247,-31.725869 72.243247,-31.725869 0,0 81.79922,-131.108107 0,0 C 37.077221,175.06563 37.077221,175.06563 37.077221,175.06563 c 0,0 -128.814672,-68.0386 0,0 128.814669,68.03861 128.814669,68.03861 128.814669,68.03861 L 132.63706,69.949805 185.00386,29.050194 118.87645,44.722007 Z"
       id="path1" />
  </g>
</svg>
