<svg id="ef1xmL6GpX91" xmlns="http://www.w3.org/2000/svg" xmlns:xlink="http://www.w3.org/1999/xlink" viewBox="0 0 260 25" shape-rendering="geometricPrecision" text-rendering="geometricPrecision"><g transform="matrix(.974671 0 0 1 6.852232 0.4604)" clip-path="url(#ef1xmL6GpX921)"><g><path d="M3.46244,12.6514l7.94326,3.4769v4.346L0,14.8089v-3.1042l3.46244.9467ZM11.4057,9.81099L3.46244,13.3499L0,14.2346v-3.0888L11.4057,5.48047v4.33052Z" fill="#0297d0"/><path d="M200.962,0c-2.825522,7.654887-5.58418,18.598467-6.878,24.5396h-3.227L198.167144,0h2.794856Z" transform="translate(40.7205 1.475145)" fill="#0297d0"/><path d="M210.758994,13.2723L203.453,9.79544v-4.31497l10.516369,5.68093v3.1043l-3.210375-.9934ZM203.453,16.1438l7.305994-2.8715l3.210375-1.5676v3.1042L203.453,20.4588v-4.315Z" transform="translate(40.48378-.917637)" fill="#0297d0"/><path d="M15.9546,13.7134c0-2.0026.4043-3.78591,1.2129-5.34988.8278-1.56401,2.0021-2.77514,3.5231-3.63343c1.5208-.87735,3.3112-1.31603,5.3711-1.31603c1.7713,0,3.3499.33378,4.736,1.00133c1.4054.64848,2.5413,1.57351,3.4076,2.77511.8855,1.20156,1.4728,2.60343,1.7616,4.2056h-6.7574c-.3081-.6676-.7509-1.1826-1.3284-1.54493-.5583-.38143-1.2032-.57215-1.9348-.57215-1.0781,0-1.9349.40051-2.5701,1.20158-.6161.8011-.9241,1.8787-.9241,3.2328s.308,2.4319.9241,3.2329c.6352.8011,1.492,1.2016,2.5701,1.2016.7316,0,1.3765-.1812,1.9348-.5436.5775-.3814,1.0203-.906,1.3284-1.5735h6.7574c-.2888,1.6021-.8761,3.004-1.7616,4.2056-.8663,1.2015-2.0022,2.1361-3.4076,2.8037-1.3861.6485-2.9647.9727-4.736.9727-2.0599,0-3.8503-.4291-5.3711-1.2874-1.521-.8773-2.6953-2.098-3.5231-3.662-.8086-1.564-1.2129-3.3473-1.2129-5.35Z" fill="#3f3d56"/><path d="M48.2376,24.0725c-1.9252,0-3.6964-.4482-5.3135-1.3447-1.5979-.8964-2.8686-2.1362-3.8119-3.7192s-1.4149-3.3663-1.4149-5.35c0-1.9835.4716-3.76685,1.4149-5.34989s2.214-2.81328,3.8119-3.69063c1.6171-.89643,3.3883-1.34464,5.3135-1.34464s3.6867.44821,5.2846,1.34464c1.5979.87735,2.8589,2.10756,3.783,3.69063.9433,1.58304,1.415,3.36639,1.415,5.34989c0,1.9837-.4717,3.767-1.415,5.35-.9241,1.583-2.1948,2.8228-3.8119,3.7192-1.5979.8965-3.3498,1.3447-5.2557,1.3447Zm0-5.9222c1.2706,0,2.2524-.4005,2.9455-1.2016.693-.8201,1.0396-1.9168,1.0396-3.2901c0-1.3923-.3466-2.489-1.0396-3.29-.6931-.8202-1.6749-1.23025-2.9455-1.23025-1.2899,0-2.2813.41005-2.9744,1.23025-.6931.801-1.0396,1.8977-1.0396,3.29c0,1.3733.3465,2.47,1.0396,3.2901.6931.8011,1.6845,1.2016,2.9744,1.2016Z" fill="#3f3d56"/><path d="M69.5522,3.61719c2.1369,0,4.0043.42914,5.6022,1.28742c1.6171.85828,2.8589,2.05034,3.7252,3.57617s1.2995,3.26152,1.2995,5.20692c0,1.9264-.4332,3.662-1.2995,5.2069s-2.1081,2.7655-3.7252,3.662c-1.5979.8774-3.4653,1.3161-5.6022,1.3161h-8.519v-20.25551h8.519ZM68.9746,18.208c1.4439,0,2.5894-.391,3.4364-1.173.8472-.782,1.2707-1.8978,1.2707-3.3473s-.4235-2.5654-1.2707-3.3473c-.847-.78202-1.9925-1.17299-3.4364-1.17299h-1.5305v9.04059h1.5305Z" fill="#3f3d56"/><path d="M88.9048,8.68104v2.48896h6.3529v4.7778h-6.3529v2.861h7.2195v5.0639h-13.6302v-20.25551h13.6302v5.06385h-7.2195Z" fill="#3f3d56"/><path d="M102.87,13.7134c0-2.0026.404-3.78591,1.212-5.34988.828-1.56401,2.003-2.77514,3.523-3.63343c1.521-.87735,3.312-1.31603,5.372-1.31603c1.771,0,3.35.33378,4.736,1.00133c1.405.64848,2.541,1.57351,3.408,2.77511.884,1.20156,1.472,2.60343,1.761,4.2056h-6.758c-.308-.6676-.75-1.1826-1.328-1.54493-.558-.38143-1.203-.57215-1.935-.57215-1.078,0-1.934.40051-2.57,1.20158-.616.8011-.924,1.8787-.924,3.2328s.308,2.4319.924,3.2329c.636.8011,1.492,1.2016,2.57,1.2016.732,0,1.377-.1812,1.935-.5436.578-.3814,1.02-.906,1.328-1.5735h6.758c-.289,1.6021-.877,3.004-1.761,4.2056-.867,1.2015-2.003,2.1361-3.408,2.8037-1.386.6485-2.965.9727-4.736.9727-2.06,0-3.851-.4291-5.372-1.2874-1.52-.8773-2.695-2.098-3.523-3.662-.808-1.564-1.212-3.3473-1.212-5.35Z" fill="#3f3d56"/><path d="M169.393,3.61719v20.25551h-6.382v-10.0992l-3.148,10.0992h-5.487l-3.147-10.0992v10.0992h-6.411v-20.25551h7.854l4.505,12.15901l4.39-12.15901h7.826Z" fill="#3f3d56"/><path d="M189.006,10.5693c0,1.2778-.299,2.4413-.896,3.4903-.597,1.0299-1.482,1.8501-2.656,2.4604-1.156.6103-2.561.9155-4.216.9155h-2.541v6.4372h-6.411v-20.25551h8.952c2.502,0,4.417.6294,5.747,1.88821c1.347,1.25882,2.021,2.94676,2.021,5.0639Zm-8.491,1.8596c1.329,0,1.993-.6199,1.993-1.8596c0-1.2398-.664-1.85964-1.993-1.85964h-1.818v3.71924h1.818Z" transform="translate(1.851-.0845)" fill="#3f3d56"/><path d="M131.679,7.13281L121.649,22.8713h6.618l3.412-4.5317v-11.20679Z" fill="#06a9a9"/><path d="M131.677,7.52734L141.823,23.2984h-6.617l-3.529-4.6581v-11.11296Z" fill="#0297d0"/><path d="M131.795,5.96875L120.332,23.7894h22.926L131.795,5.96875Zm0,2.48544L122.776,22.4757h18.038L131.795,8.45419Z" clip-rule="evenodd" fill="#3f3d56" fill-rule="evenodd"/><path d="M131.677,18.2969l4.255,5.4913h-8.509l4.254-5.4913Z" fill="#e9fe84"/><path d="M131.677,18.2969l-4.254,5.4913h8.509l-4.255-5.4913Zm0,1.8856l-1.948,2.5149h3.897l-1.949-2.5149Z" clip-rule="evenodd" fill="#3f3d56" fill-rule="evenodd"/><path d="M133.967,4.06146l-3.116,5.50115-.933-.49508l3.117-5.50112.932.49505Z" clip-rule="evenodd" fill="#3f3d56" fill-rule="evenodd"/><path d="M129.208,4.22335l3.374,5.35741.908-.53588-3.373-5.35738-.909.53585Z" clip-rule="evenodd" fill="#3f3d56" fill-rule="evenodd"/></g><clipPath id="ef1xmL6GpX921"><rect width="400" height="24.6721" rx="0" ry="0" fill="#fff"/></clipPath></g><path d="M200,6.864861h13.194744c0,0,0,1.186752,0,3.316535c0,4.618872,0,10.604873,0,10.897034-6.59737,3.092856-13.194745,1.517908-13.194744-4.451774" transform="translate(-5.427049 0.020076)" fill="none" stroke="#3f3d56" stroke-width="6"/><path d="M216.571054,22.605783c0,0,.129768-12.545424,0-17.922034c21.350138-2.178666,6.48842,10.320166,6.48842,10.320166q0,0,10.369754,4.856218" transform="translate(-.865123 1.642817)" fill="none" stroke="#3f3d56" stroke-width="6"/></svg>
