<?xml version="1.0" encoding="UTF-8" standalone="no"?>
<!-- Created with Inkscape (http://www.inkscape.org/) -->

<svg
   width="205.1776mm"
   height="300.61005mm"
   viewBox="0 0 205.1776 300.61005"
   version="1.1"
   id="svg1"
   inkscape:export-filename="home-side-deco-pati.svg"
   inkscape:export-xdpi="96"
   inkscape:export-ydpi="96"
   xmlns:inkscape="http://www.inkscape.org/namespaces/inkscape"
   xmlns:sodipodi="http://sodipodi.sourceforge.net/DTD/sodipodi-0.dtd"
   xmlns:xlink="http://www.w3.org/1999/xlink"
   xmlns="http://www.w3.org/2000/svg"
   xmlns:svg="http://www.w3.org/2000/svg">
  <sodipodi:namedview
     id="namedview1"
     pagecolor="#ffffff"
     bordercolor="#000000"
     borderopacity="0.25"
     inkscape:showpageshadow="2"
     inkscape:pageopacity="0.0"
     inkscape:pagecheckerboard="0"
     inkscape:deskcolor="#d1d1d1"
     inkscape:document-units="mm" />
  <defs
     id="defs1">
    <pattern
       inkscape:collect="always"
       xlink:href="#FloorTiles"
       preserveAspectRatio="xMidYMid"
       id="pattern14"
       patternTransform="rotate(-45)" />
    <pattern
       patternUnits="userSpaceOnUse"
       width="90"
       height="90"
       id="FloorTiles"
       preserveAspectRatio="xMidYMid"
       patternTransform="rotate(-45)"
       style="fill:#000000"
       inkscape:label="Floor tiles"
       inkscape:collect="always"
       inkscape:isstock="true">
      <path
         id="rect1"
         style="stroke-width:5;stroke-miterlimit:10"
         d="M 0,0 V 1 H 15 V 15 H 0 v 1 44 0.5 0.5 14 1 h 30 v 14 h 1 V 76 h 14 v 14 h 1 V 61 h 14 v 29 h 1 V 46 h 14 v 29 0.5 0.5 14 h 1 V 76 H 90 V 75 H 76 V 31 H 90 V 30 H 75 46 V 16 H 61 90 V 15 H 61 V 1 H 90 V 0 H 61 60 V 0.5 15 H 46 V 0 H 45 V 15 15.5 16 30 H 31 V 0 H 30 15 Z M 16,1 H 30 V 30 30.5 31 45 H 16 V 16 15 Z M 1,16 H 15 V 45 45.5 46 60 H 1 Z M 31,31 H 46 75 V 45 H 61 31 Z M 16,46 H 31 60 V 60 H 46 16 Z M 1,61 H 16 45 V 75 H 31 1 Z" />
    </pattern>
  </defs>
  <g
     inkscape:label="Layer 1"
     inkscape:groupmode="layer"
     id="layer1"
     transform="translate(20.173745,14.312742)">
    <path
       style="fill:url(#pattern14);fill-opacity:1;stroke-width:0.264583"
       d="M 69.185326,84.092663 C 59.629344,175.83011 89.061776,222.84556 89.061776,222.84556 L 172.7722,151.36679 c 0,0 -71.861,9.55599 -82.563707,72.24324 -10.702703,62.68726 -10.702703,62.68726 -10.702703,62.68726 0,0 86.00386,-43.95753 23.3166,-124.99227 C 40.135135,80.27027 40.135135,80.27027 40.135135,80.27027 c 0,0 -65.745173,27.13899 6.498068,-4.586873 72.243247,-31.725869 72.243247,-31.725869 72.243247,-31.725869 0,0 81.79922,-131.108107 0,0 C 37.077221,175.06563 37.077221,175.06563 37.077221,175.06563 c 0,0 -128.814672,-68.0386 0,0 128.814669,68.03861 128.814669,68.03861 128.814669,68.03861 L 132.63706,69.949805 185.00386,29.050194 118.87645,44.722007 Z"
       id="path1" />
  </g>
</svg>
